<?xml version="1.0" encoding="utf-8"?>
<!-- Generator: Adobe Illustrator 24.1.3, SVG Export Plug-In . SVG Version: 6.00 Build 0)  -->
<svg version="1.1" id="Layer_1" xmlns="http://www.w3.org/2000/svg" xmlns:xlink="http://www.w3.org/1999/xlink" x="0px" y="0px"
	 viewBox="0 0 100 100" style="enable-background:new 0 0 100 100;" xml:space="preserve">
<style type="text/css">
	.st0{fill:#4E94D0;}
	.st1{fill:#4E8CC1;}
	.st2{fill:#5697D1;}
	.st3{fill:#4E87B7;}
	.st4{fill:#5E9AD2;}
	.st5{fill:#4E94CF;}
	.st6{fill:#6AA0D5;}
	.st7{fill:#649DD4;}
	.st8{fill:#76A5D8;}
	.st9{fill:#70A3D7;}
	.st10{fill:#7AA8DA;}
	.st11{fill:#80ABDB;}
	.st12{fill:#FFFFFF;}
</style>
<g>
	<path class="st0" d="M50,49.7l2.5-1.4L50,49.7z"/>
	<path class="st1" d="M41.2,39h8.3v-3.5H31.4c-0.4,0-0.8-0.2-1-0.6c-0.2-0.3-0.2-0.8,0-1.2l5-7.6c0.3-0.4,0.6-0.6,1-0.6h13.2v-25
		L7,25.1l31.1,18l2.2-3.5C40.4,39.2,40.8,39,41.2,39z"/>
	<polygon class="st1" points="49.5,44.4 47.1,48.3 49.5,49.7 	"/>
	<path class="st1" d="M46.8,60.6c-0.4,0-0.9-0.2-1.1-0.6c-0.2-0.4-0.2-0.8,0.1-1.2l3.8-5.9v-2.4l-6,3.5l-6.4,10.2h12.4v-3.6H46.8z"
		/>
	<path class="st1" d="M20.5,74.5c-0.4,0-0.9-0.2-1.1-0.6s-0.2-0.9,0.1-1.2l4.7-7.6L7,75.1l42.6,24.6V74.5H20.5z"/>
	<polygon class="st2" points="49.5,50.2 49.5,50.2 49.3,50.1 44.1,53.1 43.5,54 49.5,50.5 	"/>
	<polygon class="st2" points="49.5,99.9 49.5,99.7 7,75.1 24.3,65.1 24.8,64.2 6.5,74.8 6.5,75.1 	"/>
	<polygon class="st3" points="51,50.5 51.9,49.1 50.3,50.1 	"/>
	<polygon class="st3" points="92.8,74.7 92.8,25.5 71.5,37.9 60,55.7 	"/>
	<polygon class="st4" points="71.5,37.9 92.8,25.5 92.8,74.7 60,55.7 93.1,74.8 93.1,25.4 	"/>
	<polygon class="st5" points="46.8,48.7 44.1,53.1 49.3,50.1 	"/>
	<polygon class="st5" points="37.8,43.5 6.5,25.4 6.5,74.8 24.8,64.2 	"/>
	<polygon class="st2" points="49.5,49.9 49.5,49.7 47.1,48.3 46.8,48.7 49.3,50.1 	"/>
	<polygon class="st2" points="38.1,43 7,25.1 49.5,0.5 49.5,0.2 6.5,25.1 6.5,25.4 37.8,43.5 	"/>
	<path class="st4" d="M49.5,49.9l-0.3,0.1L49.5,49.9z"/>
	<polygon class="st6" points="49.3,50.1 49.5,50.2 49.5,49.9 	"/>
	<path class="st3" d="M56.2,60.6H50v3.6h15.8c0.4,0,0.8,0.2,1,0.5c0.2,0.4,0.2,0.9,0,1.2l-5,8c-0.2,0.3-0.6,0.5-1,0.5H50v25.2
		l42.5-24.6L59.8,56.1l-2.5,3.9C57,60.4,56.6,60.6,56.2,60.6z"/>
	<polygon class="st3" points="50,52.1 50.8,51 50,50.5 	"/>
	<polygon class="st4" points="50,99.7 50,99.9 92.8,75.2 92.6,75.1 	"/>
	<polygon class="st7" points="50,74.5 49.5,74.5 49.5,99.7 49.5,99.9 49.8,100.1 50,99.9 50,99.7 	"/>
	<polygon class="st7" points="49.8,50.4 49.5,50.5 49.5,52.9 50,52.1 50,50.5 	"/>
	<rect x="49.5" y="60.6" class="st7" width="0.5" height="3.6"/>
	<polygon class="st6" points="50,50.2 50,50.5 50.8,51 51,50.5 50.3,50.1 	"/>
	<polygon class="st6" points="59.8,56.1 92.6,75.1 92.8,75.2 93.1,75.1 93.1,74.8 60,55.7 	"/>
	<polygon class="st8" points="50,50.5 50,50.2 49.8,50.4 	"/>
	<path class="st3" d="M78.2,26.1c0.3,0.4,0.2,0.9,0.1,1.2L72,36.9l20.5-11.9L50,0.5v25h27.1C77.6,25.5,78,25.7,78.2,26.1z"/>
	<path class="st3" d="M52.5,48.2l8.1-12.7H50V39h0.7c0.4,0,0.8,0.2,1,0.6c0.2,0.4,0.2,0.9,0,1.2L50,43.6v6.1L52.5,48.2z"/>
	<polygon class="st7" points="49.8,49.8 50,49.7 50,43.6 49.5,44.4 49.5,49.7 	"/>
	<polygon class="st7" points="49.5,25.5 50,25.5 50,0.5 50,0.2 49.8,0.1 49.5,0.2 49.5,0.5 	"/>
	<rect x="49.5" y="35.5" class="st7" width="0.5" height="3.5"/>
	<polygon class="st9" points="49.5,49.7 49.5,49.9 49.8,49.8 	"/>
	<path class="st8" d="M49.8,49.8l-0.3,0.1L49.8,49.8z"/>
	<polygon class="st9" points="49.7,50.3 49.6,50.3 49.6,50.3 49.5,50.2 49.5,50.5 49.8,50.4 	"/>
	<polygon class="st8" points="50.3,50.1 50,49.9 50,50.2 	"/>
	<path class="st10" d="M49.6,50.3l-0.1-0.1L49.6,50.3z"/>
	<polygon class="st11" points="49.6,50.3 49.6,50.3 49.7,50.3 49.8,50.4 50,50.2 50,49.9 49.8,49.8 49.5,49.9 49.5,50.2 	"/>
	<polygon class="st4" points="92.6,25.1 92.8,24.9 50,0.2 50,0.5 	"/>
	<polygon class="st6" points="50,49.7 50,49.7 49.8,49.8 	"/>
	<polygon class="st6" points="50,49.9 50.3,50.1 51.9,49.1 52.5,48.2 50,49.7 	"/>
	<polygon class="st6" points="72,36.9 71.5,37.9 93.1,25.4 93.1,25.1 92.8,24.9 92.6,25.1 	"/>
	<polygon class="st8" points="50,49.9 50,49.7 49.8,49.8 	"/>
	<path class="st12" d="M35.4,26.1l-5,7.6c-0.3,0.4-0.3,0.9,0,1.2c0.2,0.4,0.6,0.6,1,0.6h18.2H50h10.5l-8.1,12.7l-0.6,0.9L51,50.5
		L50.8,51L50,52.1l-0.5,0.8l-3.8,5.9c-0.3,0.4-0.3,0.8-0.1,1.2c0.2,0.4,0.6,0.6,1.1,0.6h2.8H50h6.2c0.4,0,0.8-0.2,1-0.5l2.5-3.9
		l0.3-0.4l11.4-17.9l0.6-0.9l6.2-9.7c0.1-0.3,0.2-0.8-0.1-1.2c-0.2-0.4-0.6-0.6-1-0.6H50h-0.5H36.4C36,25.5,35.6,25.7,35.4,26.1z"/>
	<path class="st12" d="M19.5,73.9c0.2,0.4,0.6,0.6,1.1,0.6h29H50h10.7c0.4,0,0.8-0.2,1-0.5l5-8c0.3-0.4,0.3-0.8,0-1.2
		c-0.3-0.4-0.6-0.5-1-0.5H50h-0.5H37.2L43.5,54l0.6-0.9l2.7-4.4l0.3-0.4l2.4-3.9l0.5-0.8l1.7-2.7c0.3-0.4,0.3-0.8,0-1.2
		c-0.2-0.4-0.6-0.6-1-0.6H50h-0.5h-8.3c-0.4,0-0.8,0.2-1,0.6L38.1,43l-0.3,0.4l-13,20.7l-0.6,0.9l-4.7,7.6
		C19.3,73,19.3,73.5,19.5,73.9z"/>
</g>
</svg>
